<svg width="49" height="47" viewBox="0 0 49 47" fill="none" xmlns="http://www.w3.org/2000/svg">
    <path d="M7.67999 10.7826H30.3327C40.0554 10.7826 47.948 18.6779 47.948 28.3913C47.948 38.1219 40.0723 46 30.3327 46H6.86957C5.78901 46 4.91305 45.124 4.91305 44.0435C4.91305 42.9629 5.78901 42.087 6.86957 42.087H30.3327C37.9109 42.087 44.0349 35.961 44.0349 28.3913C44.0349 20.8387 37.894 14.6956 30.3327 14.6956H7.67999L14.1226 21.1383C14.8867 21.9024 14.8867 23.1411 14.1226 23.9052C13.3585 24.6692 12.1197 24.6692 11.3557 23.9052L1.57305 14.1226C0.808983 13.3585 0.808983 12.1197 1.57305 11.3557L11.3557 1.57305C12.1197 0.808983 13.3585 0.808983 14.1226 1.57305C14.8867 2.33712 14.8867 3.57587 14.1226 4.33994L7.67999 10.7826Z"
          fill="white" stroke="#79A1C6"/>
</svg>
