<svg width="76" height="70" viewBox="0 0 76 70" fill="none" xmlns="http://www.w3.org/2000/svg">
    <path d="M63.9698 33.8488L64.0565 33.9251L64.0838 33.9515L68.8646 38.2132L72.0609 34.1766L37.9143 3.72934L3.76676 34.1766L6.96494 38.2132L11.7495 33.9467L11.8588 33.8488L11.888 33.8243L36.8376 11.5764C37.4329 11.03 38.357 11.0131 38.9741 11.5614L63.9698 33.8488ZM64.5511 38.6286V68.4042C64.5511 69.285 63.8361 70 62.9553 70H45.5749C44.6941 70 43.9791 69.285 43.9791 68.4042V47.8266H31.8505V68.4042C31.8505 69.285 31.1355 70 30.2547 70H12.8733C11.9925 70 11.2775 69.285 11.2775 68.4042V38.6399L7.82878 41.7147C7.17124 42.2997 6.16327 42.2413 5.57828 41.5838L0.341547 34.9679C-0.18222 34.3047 -0.0917858 33.3514 0.531836 32.7975L36.8545 0.40304C37.4715 -0.14522 38.3957 -0.128263 38.991 0.418112L75.2996 32.7928C75.9571 33.3778 76.0155 34.3857 75.4305 35.0433L70.3068 41.5084C69.7633 42.1961 68.7638 42.3138 68.0761 41.7703L64.5511 38.6286ZM14.4691 35.7931V66.8084H28.6589V46.2308C28.6589 45.35 29.3739 44.635 30.2547 44.635H45.5749C46.4557 44.635 47.1707 45.35 47.1707 46.2308V66.8084H61.3595V35.7837L37.9143 14.8876L14.4691 35.7931Z"
          fill="white" fill-opacity="0.65"/>
</svg>
